<mxfile host="app.diagrams.net" modified="2024-04-12T09:29:15.123Z" agent="Mozilla/5.0 (Windows NT 10.0; Win64; x64) AppleWebKit/537.36 (KHTML, like Gecko) Chrome/123.0.0.0 Safari/537.36" version="24.0.7" etag="EP3lM2qCkUI8-h1GghO1" type="github">
  <diagram name="第 1 页" id="9ymRfF5H0LF7-dMs6pFh">
    <mxGraphModel>
      <root>
        <mxCell id="0" />
        <mxCell id="1" parent="0" />
      </root>
    </mxGraphModel>
  </diagram>
</mxfile>
